{
	"asset":{
		"version":"2.0",
		"generator":"Created using the official Cinema 4D glTF Exporter 1.000x284978"
	},
	"scenes":[{
		"nodes":[0]
	}],
	"meshes":[{
		"name":"Null",
		"primitives":[{
			"attributes":{
				"POSITION":1,
				"NORMAL":2,
				"TEXCOORD_0":3
			},
			"indices":0,
			"material":0
		}]
	}],
	"nodes":[{
		"name":"Null",
		"mesh":0,
		"translation":[13.283278465270996,
		4.504281044006348,
		0.6010562181472778],
		"rotation":[0.0,
		0.0,
		0.0,
		-1.0],
		"scale":[1.0,
		1.0,
		1.0]
	}],
	"accessors":[{
		"count":188553,
		"bufferView":0,
		"type":"SCALAR",
		"componentType":5123,
		"byteOffset":0,
		"min":[0],
		"max":[36133]
	},
	{
		"count":36134,
		"bufferView":1,
		"type":"VEC3",
		"componentType":5126,
		"byteOffset":0,
		"min":[-46.359397888183597,
		-1.413692593574524,
		-26.436540603637697],
		"max":[7.367834568023682,
		105.38367462158203,
		31.607749938964845]
	},
	{
		"count":36134,
		"bufferView":1,
		"type":"VEC3",
		"componentType":5126,
		"byteOffset":12,
		"min":[-0.9999886751174927,
		-0.9999974966049194,
		-0.9999389052391052],
		"max":[0.9999025464057922,
		0.9999927282333374,
		0.9999830722808838]
	},
	{
		"count":36134,
		"bufferView":1,
		"type":"VEC2",
		"componentType":5126,
		"byteOffset":24,
		"min":[0.0006721623940393329,
		0.0006721623940393329],
		"max":[0.9980506896972656,
		0.9945889711380005]
	}],
	"bufferViews":[{
		"buffer":0,
		"byteOffset":0,
		"byteLength":377106,
		"target":34963
	},
	{
		"buffer":0,
		"byteOffset":377108,
		"byteLength":1156288,
		"target":34962,
		"byteStride":32
	}],
	"buffers":[{
		"uri":"data:application/octet-stream;base64,",
		"byteLength":1533396
	}],
	"images":[{
		"uri":"data:image/png;base64,"
	}],
	"samplers":[{
		"magFilter":9729,
		"minFilter":9729,
		"wrapS":10497,
		"wrapT":10497
	}],
	"textures":[{
		"sampler":0,
		"source":0
	}],
	"materials":[{
		"pbrMetallicRoughness":{
			"baseColorTexture":{
				"index":0
			},
			"baseColorFactor":[1.0,
			1.0,
			1.0,
			1.0],
			"metallicFactor":0.0,
			"roughnessFactor":0.5
		},
		"emissiveFactor":[0.0,
		0.0,
		0.0],
		"alphaMode":"OPAQUE",
		"name":"Null",
		"doubleSided":false
	}]
}