{
	"scenes":[{
		"nodes":[0,
		1]
	}],
	"asset":{
		"version":"2.0",
		"generator":"Created using the official Cinema 4D glTF Exporter 1.000x284978"
	},
	"accessors":[{
		"bufferView":0,
		"type":"SCALAR",
		"componentType":5123,
		"count":672,
		"byteOffset":0,
		"min":[0],
		"max":[150]
	},
	{
		"bufferView":1,
		"type":"VEC3",
		"componentType":5126,
		"count":151,
		"byteOffset":0,
		"min":[-7.1592912673950199,
		-3.115077495574951,
		6.463180065155029],
		"max":[1.5401686429977418,
		5.5843825340271,
		15.162639617919922]
	},
	{
		"bufferView":1,
		"type":"VEC3",
		"componentType":5126,
		"count":151,
		"byteOffset":12,
		"min":[-1.0,
		-1.0,
		-1.0],
		"max":[1.0,
		1.0,
		1.0]
	},
	{
		"bufferView":1,
		"type":"VEC2",
		"componentType":5126,
		"count":151,
		"byteOffset":24,
		"min":[0.0,
		0.0],
		"max":[1.0,
		1.0]
	},
	{
		"bufferView":2,
		"type":"SCALAR",
		"componentType":5126,
		"count":2,
		"byteOffset":0,
		"min":[0.0],
		"max":[3.0]
	},
	{
		"bufferView":2,
		"type":"VEC3",
		"componentType":5126,
		"count":2,
		"byteOffset":8,
		"min":[-11.180370330810547,
		118.7530288696289,
		10.966432571411133],
		"max":[-11.180370330810547,
		118.7530288696289,
		10.966432571411133]
	},
	{
		"bufferView":3,
		"type":"SCALAR",
		"componentType":5126,
		"count":5,
		"byteOffset":0,
		"min":[0.0],
		"max":[3.0]
	},
	{
		"bufferView":3,
		"type":"VEC4",
		"componentType":5126,
		"count":5,
		"byteOffset":20,
		"min":[0.0,
		-0.9719610214233398,
		0.0,
		-0.9719610214233398],
		"max":[0.0,
		0.23514211177825929,
		0.0,
		0.9719610214233398]
	},
	{
		"bufferView":4,
		"type":"SCALAR",
		"componentType":5126,
		"count":2,
		"byteOffset":0,
		"min":[0.0],
		"max":[3.0]
	},
	{
		"bufferView":4,
		"type":"VEC3",
		"componentType":5126,
		"count":2,
		"byteOffset":8,
		"min":[1.0,
		1.0,
		1.0],
		"max":[1.0,
		1.0,
		1.0]
	},
	{
		"bufferView":5,
		"type":"SCALAR",
		"componentType":5123,
		"count":188553,
		"byteOffset":0,
		"min":[0],
		"max":[36133]
	},
	{
		"bufferView":6,
		"type":"VEC3",
		"componentType":5126,
		"count":36134,
		"byteOffset":0,
		"min":[-11.7872896194458,
		-0.6149181127548218,
		-11.499181747436524],
		"max":[11.582605361938477,
		45.839054107666019,
		13.748517990112305]
	},
	{
		"bufferView":6,
		"type":"VEC3",
		"componentType":5126,
		"count":36134,
		"byteOffset":12,
		"min":[-0.9999886751174927,
		-0.9999974966049194,
		-0.9999389052391052],
		"max":[0.9999025464057922,
		0.9999927282333374,
		0.9999830722808838]
	},
	{
		"bufferView":6,
		"type":"VEC2",
		"componentType":5126,
		"count":36134,
		"byteOffset":24,
		"min":[0.0006721623940393329,
		0.0006721623940393329],
		"max":[0.9980506896972656,
		0.9945889711380005]
	}],
	"nodes":[{
		"name":"Sphere",
		"mesh":0,
		"translation":[-4.4496541023254398,
		52.431175231933597,
		7.86826753616333],
		"rotation":[0.0,
		-0.9937679171562195,
		0.0,
		0.11146893352270127],
		"scale":[1.0,
		1.0,
		1.0]
	},
	{
		"name":"Null",
		"mesh":1
	}],
	"meshes":[{
		"name":"Sphere",
		"primitives":[{
			"attributes":{
				"POSITION":1,
				"NORMAL":2,
				"TEXCOORD_0":3
			},
			"indices":0,
			"material":0
		}]
	},
	{
		"name":"Null",
		"primitives":[{
			"attributes":{
				"POSITION":11,
				"NORMAL":12,
				"TEXCOORD_0":13
			},
			"indices":10,
			"material":1
		}]
	}],
	"bufferViews":[{
		"buffer":0,
		"byteOffset":0,
		"byteLength":1344,
		"target":34963
	},
	{
		"buffer":0,
		"byteOffset":1344,
		"byteLength":4832,
		"target":34962,
		"byteStride":32
	},
	{
		"buffer":1,
		"byteOffset":0,
		"byteLength":32
	},
	{
		"buffer":1,
		"byteOffset":32,
		"byteLength":100
	},
	{
		"buffer":1,
		"byteOffset":132,
		"byteLength":32
	},
	{
		"buffer":2,
		"byteOffset":0,
		"byteLength":377106,
		"target":34963
	},
	{
		"buffer":2,
		"byteOffset":377108,
		"byteLength":1156288,
		"target":34962,
		"byteStride":32
	}],
	"buffers":[{
		"uri":"data:application/octet-stream;base64,",
		"byteLength":6176
	},
	{
		"uri":"data:application/octet-stream;base64,",
		"byteLength":164
	},
	{
		"uri":"data:application/octet-stream;base64,",
		"byteLength":1533396
	}],
	"materials":[{
		"pbrMetallicRoughness":{
			"baseColorFactor":[1.0,
			1.0,
			1.0,
			1.0],
			"metallicFactor":1.0,
			"roughnessFactor":1.0
		},
		"emissiveFactor":[1.0,
		0.8136666666666668,
		0.14],
		"alphaMode":"OPAQUE",
		"doubleSided":false,
		"name":"Mat"
	},
	{
		"pbrMetallicRoughness":{
			"baseColorFactor":[0.10666666666666665,
			0.8,
			0.0,
			1.0],
			"metallicFactor":0.0,
			"roughnessFactor":0.5
		},
		"emissiveFactor":[0.0,
		0.0,
		0.0],
		"alphaMode":"OPAQUE",
		"doubleSided":false,
		"name":"Mat.1"
	}],
	"animations":[{
		"samplers":[{
			"input":4,
			"interpolation":"LINEAR",
			"output":5
		},
		{
			"input":6,
			"interpolation":"LINEAR",
			"output":7
		},
		{
			"input":8,
			"interpolation":"LINEAR",
			"output":9
		}],
		"channels":[{
			"sampler":0,
			"target":{
				"node":0,
				"path":"translation"
			}
		},
		{
			"sampler":1,
			"target":{
				"node":0,
				"path":"rotation"
			}
		},
		{
			"sampler":2,
			"target":{
				"node":0,
				"path":"scale"
			}
		}]
	}]
}