{
	"asset":{
		"version":"2.0",
		"generator":"Created using the official Cinema 4D glTF Exporter 1.000x284978"
	},
	"scenes":[{
		"nodes":[0]
	}],
	"nodes":[{
		"name":"Null",
		"mesh":0,
		"translation":[113.39938354492188,
		283.5231628417969,
		-12.630194664001465],
		"rotation":[0.0,
		0.0,
		0.0,
		-1.0],
		"scale":[1.0,
		1.0,
		1.0]
	}],
	"meshes":[{
		"name":"Null",
		"primitives":[{
			"attributes":{
				"POSITION":1,
				"NORMAL":2,
				"TEXCOORD_0":3
			},
			"indices":0,
			"material":0
		}]
	}],
	"accessors":[{
		"bufferView":0,
		"type":"SCALAR",
		"componentType":5123,
		"count":188553,
		"byteOffset":0,
		"min":[0],
		"max":[36061]
	},
	{
		"bufferView":1,
		"type":"VEC3",
		"componentType":5126,
		"count":36062,
		"byteOffset":0,
		"min":[-74.13452911376953,
		-66.643798828125,
		-42.27536392211914],
		"max":[11.782096862792969,
		104.138671875,
		50.54478073120117]
	},
	{
		"bufferView":1,
		"type":"VEC3",
		"componentType":5126,
		"count":36062,
		"byteOffset":12,
		"min":[-0.9999886751174927,
		-0.9999974966049194,
		-0.9999389052391052],
		"max":[0.9999025464057922,
		0.9999927282333374,
		0.9999830722808838]
	},
	{
		"bufferView":1,
		"type":"VEC2",
		"componentType":5126,
		"count":36062,
		"byteOffset":24,
		"min":[0.0006512738182209432,
		0.0006512737600132823],
		"max":[0.9957114458084106,
		0.9980506896972656]
	}],
	"bufferViews":[{
		"buffer":0,
		"byteOffset":0,
		"byteLength":377106,
		"target":34963
	},
	{
		"buffer":0,
		"byteOffset":377108,
		"byteLength":1153984,
		"target":34962,
		"byteStride":32
	}],
	"buffers":[{
		"uri":"data:application/octet-stream;base64,",
		"byteLength":1531092
	}],
	"images":[{
		"uri":"data:image/png;base64,"
	}],
	"samplers":[{
		"magFilter":9729,
		"minFilter":9729,
		"wrapS":10497,
		"wrapT":10497
	}],
	"textures":[{
		"sampler":0,
		"source":0
	}],
	"materials":[{
		"name":"Null",
		"pbrMetallicRoughness":{
			"baseColorTexture":{
				"index":0
			},
			"baseColorFactor":[1.0,
			1.0,
			1.0,
			1.0],
			"metallicFactor":0.0,
			"roughnessFactor":0.5
		},
		"emissiveFactor":[0.0,
		0.0,
		0.0],
		"alphaMode":"OPAQUE",
		"doubleSided":false
	}]
}