{
	"asset":{
		"version":"2.0",
		"generator":"Created using the official Cinema 4D glTF Exporter 1.000x284978"
	},
	"scenes":[{
		"nodes":[0]
	}],
	"nodes":[{
		"name":"Null",
		"translation":[190.23818969726563,
		536.9977416992188,
		-20.409818649291993],
		"rotation":[0.0,
		-0.33341386914253237,
		0.0,
		0.9427805542945862],
		"scale":[1.0,
		1.0,
		1.0],
		"children":[1,
		2,
		3]
	},
	{
		"name":"Rz_123_Afrodyta_z_Melos_119K.1",
		"mesh":0,
		"translation":[-135.11151123046876,
		-536.9977416992188,
		135.46957397460938],
		"rotation":[0.0,
		-0.33341386914253237,
		0.0,
		-0.9427805542945862],
		"scale":[1.0,
		1.0,
		1.0]
	},
	{
		"name":"ReferenceModel_Selection_1",
		"translation":[-25.38265609741211,
		-30.048601150512697,
		26.756763458251954],
		"rotation":[-0.03379521146416664,
		-0.07818915694952011,
		-0.1978944092988968,
		0.9765152931213379],
		"scale":[0.2850342094898224,
		0.2850342094898224,
		0.2850342094898224],
		"children":[4]
	},
	{
		"name":"ReferenceModel_Selection_2",
		"translation":[25.38265609741211,
		30.048601150512697,
		-26.756763458251954],
		"rotation":[0.0,
		0.0,
		0.0,
		-1.0],
		"scale":[0.390625,
		0.390625,
		0.390625],
		"children":[5]
	},
	{
		"name":"Mesh_1",
		"mesh":1
	},
	{
		"name":"Mesh_2",
		"mesh":2
	}],
	"meshes":[{
		"name":"Rz_123_Afrodyta_z_Melos_119K.1",
		"primitives":[{
			"attributes":{
				"POSITION":1,
				"NORMAL":2,
				"TEXCOORD_0":3
			},
			"indices":0,
			"material":0
		}]
	},
	{
		"name":"Mesh_1",
		"primitives":[{
			"attributes":{
				"POSITION":5,
				"NORMAL":6
			},
			"indices":4,
			"material":1
		}]
	},
	{
		"name":"Mesh_2",
		"primitives":[{
			"attributes":{
				"POSITION":8,
				"NORMAL":9
			},
			"indices":7,
			"material":1
		}]
	}],
	"accessors":[{
		"bufferView":0,
		"type":"SCALAR",
		"componentType":5123,
		"count":57360,
		"byteOffset":0,
		"min":[0],
		"max":[11453]
	},
	{
		"bufferView":1,
		"type":"VEC3",
		"componentType":5126,
		"count":11454,
		"byteOffset":0,
		"min":[-95.4787368774414,
		5.109829902648926,
		-113.80718994140625],
		"max":[107.79312896728516,
		671.357177734375,
		107.26459503173828]
	},
	{
		"bufferView":1,
		"type":"VEC3",
		"componentType":5126,
		"count":11454,
		"byteOffset":12,
		"min":[-0.9999884366989136,
		-0.9999973773956299,
		-0.9999386668205261],
		"max":[0.9999024271965027,
		0.9999926090240479,
		0.9996700882911682]
	},
	{
		"bufferView":1,
		"type":"VEC2",
		"componentType":5126,
		"count":11454,
		"byteOffset":24,
		"min":[0.004780000075697899,
		0.007089999504387379],
		"max":[0.9960899949073792,
		0.9960999488830566]
	},
	{
		"bufferView":2,
		"type":"SCALAR",
		"componentType":5123,
		"count":67905,
		"byteOffset":0,
		"min":[0],
		"max":[11323]
	},
	{
		"bufferView":3,
		"type":"VEC3",
		"componentType":5126,
		"count":11324,
		"byteOffset":0,
		"min":[-621.3402709960938,
		-122.48634338378906,
		79.09258270263672],
		"max":[95.96123504638672,
		639.1314697265625,
		771.5489501953125]
	},
	{
		"bufferView":3,
		"type":"VEC3",
		"componentType":5126,
		"count":11324,
		"byteOffset":12,
		"min":[-0.9999174475669861,
		-0.9999791383743286,
		-0.9997566938400269],
		"max":[0.9998845458030701,
		0.9999473690986633,
		0.9999829530715942]
	},
	{
		"bufferView":4,
		"type":"SCALAR",
		"componentType":5123,
		"count":63756,
		"byteOffset":0,
		"min":[0],
		"max":[10563]
	},
	{
		"bufferView":5,
		"type":"VEC3",
		"componentType":5126,
		"count":10564,
		"byteOffset":0,
		"min":[-906.2530517578125,
		-1054.3297119140626,
		4.1808648109436039],
		"max":[10.825716018676758,
		-228.066162109375,
		926.7998657226563]
	},
	{
		"bufferView":5,
		"type":"VEC3",
		"componentType":5126,
		"count":10564,
		"byteOffset":12,
		"min":[-0.9999335408210754,
		-0.9992950558662415,
		-0.9999377131462097],
		"max":[0.9997737407684326,
		0.9999527335166931,
		0.9999497532844544]
	}],
	"bufferViews":[{
		"buffer":0,
		"byteOffset":0,
		"byteLength":114720,
		"target":34963
	},
	{
		"buffer":0,
		"byteOffset":114720,
		"byteLength":366528,
		"target":34962,
		"byteStride":32
	},
	{
		"buffer":1,
		"byteOffset":0,
		"byteLength":135810,
		"target":34963
	},
	{
		"buffer":1,
		"byteOffset":135812,
		"byteLength":271776,
		"target":34962,
		"byteStride":24
	},
	{
		"buffer":2,
		"byteOffset":0,
		"byteLength":127512,
		"target":34963
	},
	{
		"buffer":2,
		"byteOffset":127512,
		"byteLength":253536,
		"target":34962,
		"byteStride":24
	}],
	"buffers":[{
		"uri":"data:application/octet-stream;base64,",
		"byteLength":481248
	},
	{
		"uri":"data:application/octet-stream;base64,",
		"byteLength":407588
	},
	{
		"uri":"data:application/octet-stream;base64,",
		"byteLength":381048
	}],
	"materials":[{
		"name":"defaultMat_1",
		"pbrMetallicRoughness":{
			"baseColorFactor":[0.800000011920929,
			0.800000011920929,
			0.800000011920929,
			1.0],
			"metallicFactor":1.0,
			"roughnessFactor":0.535610020160675
		},
		"emissiveFactor":[0.0,
		0.0,
		0.0],
		"alphaMode":"OPAQUE",
		"doubleSided":false
	},
	{
		"name":"ImportColorMat",
		"pbrMetallicRoughness":{
			"baseColorFactor":[1.0,
			1.0,
			1.0,
			1.0],
			"metallicFactor":0.0,
			"roughnessFactor":0.5678071905112637
		},
		"emissiveFactor":[0.0,
		0.0,
		0.0],
		"alphaMode":"OPAQUE",
		"doubleSided":false
	}]
}