{
	"asset":{
		"version":"2.0",
		"generator":"Created using the official Cinema 4D glTF Exporter 1.000x284978"
	},
	"scenes":[{
		"nodes":[0]
	}],
	"nodes":[{
		"name":"Null",
		"mesh":0,
		"translation":[113.39938354492188,
		4.504281044006348,
		-12.630194664001465],
		"rotation":[0.0,
		0.0,
		0.0,
		-1.0],
		"scale":[1.0,
		1.0,
		1.0]
	}],
	"meshes":[{
		"name":"Null",
		"primitives":[{
			"attributes":{
				"POSITION":1,
				"NORMAL":2,
				"TEXCOORD_0":3
			},
			"indices":0,
			"material":0
		}]
	}],
	"accessors":[{
		"bufferView":0,
		"type":"SCALAR",
		"componentType":5123,
		"count":189021,
		"byteOffset":0,
		"min":[0],
		"max":[33341]
	},
	{
		"bufferView":1,
		"type":"VEC3",
		"componentType":5126,
		"count":33342,
		"byteOffset":0,
		"min":[-46.359397888183597,
		-1.413692593574524,
		-26.436540603637697],
		"max":[7.367834568023682,
		105.38367462158203,
		31.607749938964845]
	},
	{
		"bufferView":1,
		"type":"VEC3",
		"componentType":5126,
		"count":33342,
		"byteOffset":12,
		"min":[-0.9999884366989136,
		-0.9999973773956299,
		-0.9999386668205261],
		"max":[0.9999024271965027,
		0.9999926090240479,
		0.9999829530715942]
	},
	{
		"bufferView":1,
		"type":"VEC2",
		"componentType":5126,
		"count":33342,
		"byteOffset":24,
		"min":[0.0,
		0.0],
		"max":[0.9960899949073792,
		0.9960999488830566]
	}],
	"bufferViews":[{
		"buffer":0,
		"byteOffset":0,
		"byteLength":378042,
		"target":34963
	},
	{
		"buffer":0,
		"byteOffset":378044,
		"byteLength":1066944,
		"target":34962,
		"byteStride":32
	}],
	"buffers":[{
		"uri":"data:application/octet-stream;base64,",
		"byteLength":1444988
	}],
	"materials":[{
		"name":"Mat",
		"pbrMetallicRoughness":{
			"baseColorFactor":[0.5479999999999999,
			0.8,
			0.23999999999999997,
			1.0],
			"metallicFactor":1.0,
			"roughnessFactor":1.0
		},
		"emissiveFactor":[0.0,
		0.0,
		0.0],
		"alphaMode":"OPAQUE",
		"doubleSided":false
	}]
}