{"asset":{"generator":"FBX2glTF v0.9.7","version":"2.0"},"scene":0,"extensionsUsed":["KHR_lights_punctual"],"buffers":[{"byteLength":436260,"uri":"data:application/octet-stream;base64,"}],"bufferViews":[{"buffer":0,"byteLength":2036,"byteOffset":0},{"buffer":0,"byteLength":6108,"byteOffset":2036},{"buffer":0,"byteLength":8144,"byteOffset":8144},{"buffer":0,"byteLength":8144,"byteOffset":16288},{"buffer":0,"byteLength":8144,"byteOffset":24432},{"buffer":0,"byteLength":8144,"byteOffset":32576},{"buffer":0,"byteLength":8144,"byteOffset":40720},{"buffer":0,"byteLength":8144,"byteOffset":48864},{"buffer":0,"byteLength":8144,"byteOffset":57008},{"buffer":0,"byteLength":8144,"byteOffset":65152},{"buffer":0,"byteLength":8144,"byteOffset":73296},{"buffer":0,"byteLength":8144,"byteOffset":81440},{"buffer":0,"byteLength":8144,"byteOffset":89584},{"buffer":0,"byteLength":8144,"byteOffset":97728},{"buffer":0,"byteLength":8144,"byteOffset":105872},{"buffer":0,"byteLength":8144,"byteOffset":114016},{"buffer":0,"byteLength":8144,"byteOffset":122160},{"buffer":0,"byteLength":8144,"byteOffset":130304},{"buffer":0,"byteLength":8144,"byteOffset":138448},{"buffer":0,"byteLength":8144,"byteOffset":146592},{"buffer":0,"byteLength":8144,"byteOffset":154736},{"buffer":0,"byteLength":8144,"byteOffset":162880},{"buffer":0,"byteLength":8144,"byteOffset":171024},{"buffer":0,"byteLength":8144,"byteOffset":179168},{"buffer":0,"byteLength":8144,"byteOffset":187312},{"buffer":0,"byteLength":8144,"byteOffset":195456},{"buffer":0,"byteLength":8144,"byteOffset":203600},{"buffer":0,"byteLength":8144,"byteOffset":211744},{"buffer":0,"byteLength":8144,"byteOffset":219888},{"buffer":0,"byteLength":8144,"byteOffset":228032},{"buffer":0,"byteLength":6108,"byteOffset":236176},{"buffer":0,"byteLength":6108,"byteOffset":242284},{"buffer":0,"byteLength":12612,"byteOffset":248392,"target":34963},{"buffer":0,"byteLength":34512,"byteOffset":261004,"target":34962},{"buffer":0,"byteLength":34512,"byteOffset":295516,"target":34962},{"buffer":0,"byteLength":23008,"byteOffset":330028,"target":34962},{"buffer":0,"byteLength":23008,"byteOffset":353036,"target":34962},{"buffer":0,"byteLength":46016,"byteOffset":376044,"target":34962},{"buffer":0,"byteLength":552,"byteOffset":422060,"target":34963},{"buffer":0,"byteLength":1344,"byteOffset":422612,"target":34962},{"buffer":0,"byteLength":1344,"byteOffset":423956,"target":34962},{"buffer":0,"byteLength":896,"byteOffset":425300,"target":34962},{"buffer":0,"byteLength":552,"byteOffset":426196,"target":34963},{"buffer":0,"byteLength":1344,"byteOffset":426748,"target":34962},{"buffer":0,"byteLength":1344,"byteOffset":428092,"target":34962},{"buffer":0,"byteLength":896,"byteOffset":429436,"target":34962},{"buffer":0,"byteLength":552,"byteOffset":430332,"target":34963},{"buffer":0,"byteLength":1344,"byteOffset":430884,"target":34962},{"buffer":0,"byteLength":1344,"byteOffset":432228,"target":34962},{"buffer":0,"byteLength":896,"byteOffset":433572,"target":34962},{"buffer":0,"byteLength":1792,"byteOffset":434468}],"scenes":[{"name":"Root Scene","nodes":[0]}],"accessors":[{"componentType":5126,"type":"SCALAR","count":509,"bufferView":0,"byteOffset":0,"min":[0],"max":[21.1666660308838]},{"componentType":5126,"type":"VEC3","count":509,"bufferView":1,"byteOffset":0},{"componentType":5126,"type":"VEC4","count":509,"bufferView":2,"byteOffset":0},{"componentType":5126,"type":"VEC4","count":509,"bufferView":3,"byteOffset":0},{"componentType":5126,"type":"VEC4","count":509,"bufferView":4,"byteOffset":0},{"componentType":5126,"type":"VEC4","count":509,"bufferView":5,"byteOffset":0},{"componentType":5126,"type":"VEC4","count":509,"bufferView":6,"byteOffset":0},{"componentType":5126,"type":"VEC4","count":509,"bufferView":7,"byteOffset":0},{"componentType":5126,"type":"VEC4","count":509,"bufferView":8,"byteOffset":0},{"componentType":5126,"type":"VEC4","count":509,"bufferView":9,"byteOffset":0},{"componentType":5126,"type":"VEC4","count":509,"bufferView":10,"byteOffset":0},{"componentType":5126,"type":"VEC4","count":509,"bufferView":11,"byteOffset":0},{"componentType":5126,"type":"VEC4","count":509,"bufferView":12,"byteOffset":0},{"componentType":5126,"type":"VEC4","count":509,"bufferView":13,"byteOffset":0},{"componentType":5126,"type":"VEC4","count":509,"bufferView":14,"byteOffset":0},{"componentType":5126,"type":"VEC4","count":509,"bufferView":15,"byteOffset":0},{"componentType":5126,"type":"VEC4","count":509,"bufferView":16,"byteOffset":0},{"componentType":5126,"type":"VEC4","count":509,"bufferView":17,"byteOffset":0},{"componentType":5126,"type":"VEC4","count":509,"bufferView":18,"byteOffset":0},{"componentType":5126,"type":"VEC4","count":509,"bufferView":19,"byteOffset":0},{"componentType":5126,"type":"VEC4","count":509,"bufferView":20,"byteOffset":0},{"componentType":5126,"type":"VEC4","count":509,"bufferView":21,"byteOffset":0},{"componentType":5126,"type":"VEC4","count":509,"bufferView":22,"byteOffset":0},{"componentType":5126,"type":"VEC4","count":509,"bufferView":23,"byteOffset":0},{"componentType":5126,"type":"VEC4","count":509,"bufferView":24,"byteOffset":0},{"componentType":5126,"type":"VEC4","count":509,"bufferView":25,"byteOffset":0},{"componentType":5126,"type":"VEC4","count":509,"bufferView":26,"byteOffset":0},{"componentType":5126,"type":"VEC4","count":509,"bufferView":27,"byteOffset":0},{"componentType":5126,"type":"VEC4","count":509,"bufferView":28,"byteOffset":0},{"componentType":5126,"type":"VEC4","count":509,"bufferView":29,"byteOffset":0},{"componentType":5126,"type":"VEC3","count":509,"bufferView":30,"byteOffset":0},{"componentType":5126,"type":"VEC3","count":509,"bufferView":31,"byteOffset":0},{"componentType":5123,"type":"SCALAR","count":6306,"bufferView":32,"byteOffset":0},{"componentType":5126,"type":"VEC3","count":2876,"bufferView":33,"byteOffset":0,"min":[-2.54033136367798,-2.34895157814026,-3.17470598220825],"max":[0.906055271625519,6.39889860153198,3.17470598220825]},{"componentType":5126,"type":"VEC3","count":2876,"bufferView":34,"byteOffset":0},{"componentType":5126,"type":"VEC2","count":2876,"bufferView":35,"byteOffset":0},{"componentType":5123,"type":"VEC4","count":2876,"bufferView":36,"byteOffset":0},{"componentType":5126,"type":"VEC4","count":2876,"bufferView":37,"byteOffset":0},{"componentType":5123,"type":"SCALAR","count":276,"bufferView":38,"byteOffset":0},{"componentType":5126,"type":"VEC3","count":112,"bufferView":39,"byteOffset":0,"min":[-6.67322540283203,-0.735800087451935,-6.72528600692749],"max":[6.67322540283203,0.431800067424774,6.72528600692749]},{"componentType":5126,"type":"VEC3","count":112,"bufferView":40,"byteOffset":0},{"componentType":5126,"type":"VEC2","count":112,"bufferView":41,"byteOffset":0},{"componentType":5123,"type":"SCALAR","count":276,"bufferView":42,"byteOffset":0},{"componentType":5126,"type":"VEC3","count":112,"bufferView":43,"byteOffset":0,"min":[-3.95722270011902,-0.436329454183578,-3.98809480667114],"max":[3.95722270011902,0.256057441234589,3.98809480667114]},{"componentType":5126,"type":"VEC3","count":112,"bufferView":44,"byteOffset":0},{"componentType":5126,"type":"VEC2","count":112,"bufferView":45,"byteOffset":0},{"componentType":5123,"type":"SCALAR","count":276,"bufferView":46,"byteOffset":0},{"componentType":5126,"type":"VEC3","count":112,"bufferView":47,"byteOffset":0,"min":[-0.937925100326538,-0.103417061269283,-0.94524222612381],"max":[0.937925100326538,0.0606897138059139,0.94524222612381]},{"componentType":5126,"type":"VEC3","count":112,"bufferView":48,"byteOffset":0},{"componentType":5126,"type":"VEC2","count":112,"bufferView":49,"byteOffset":0},{"componentType":5126,"type":"MAT4","count":28,"bufferView":50,"byteOffset":0}],"images":[{"name":"bobot2Surface_Color.png","uri":"data:application/octet-stream;base64,"}],"samplers":[{}],"textures":[{"name":"bobot2Surface_Color","sampler":0,"source":0}],"materials":[{"name":"baked","alphaMode":"OPAQUE","extras":{"fromFBX":{"shadingModel":"Lambert","isTruePBR":false}},"pbrMetallicRoughness":{"baseColorTexture":{"index":0,"texCoord":0},"baseColorFactor":[1,1,1,1],"metallicFactor":0.200000002980232,"roughnessFactor":0.800000011920929}},{"name":"Mat.6","alphaMode":"OPAQUE","extras":{"fromFBX":{"shadingModel":"Lambert","isTruePBR":false}},"pbrMetallicRoughness":{"baseColorFactor":[0.262466669082642,0.310000002384186,0.0248000007122755,1],"metallicFactor":0.200000002980232,"roughnessFactor":0.800000011920929}},{"name":"Mat.7","alphaMode":"OPAQUE","extras":{"fromFBX":{"shadingModel":"Lambert","isTruePBR":false}},"pbrMetallicRoughness":{"baseColorFactor":[0.458333343267441,0.550000011920929,0,1],"metallicFactor":0.200000002980232,"roughnessFactor":0.800000011920929}}],"meshes":[{"name":"baked","primitives":[{"material":0,"mode":4,"attributes":{"JOINTS_0":36,"NORMAL":34,"POSITION":33,"TEXCOORD_0":35,"WEIGHTS_0":37},"indices":32}]},{"name":"Extrude","primitives":[{"material":1,"mode":4,"attributes":{"NORMAL":40,"POSITION":39,"TEXCOORD_0":41},"indices":38}]},{"name":"Extrude_1","primitives":[{"material":2,"mode":4,"attributes":{"NORMAL":44,"POSITION":43,"TEXCOORD_0":45},"indices":42}]},{"name":"Extrude_2","primitives":[{"material":2,"mode":4,"attributes":{"NORMAL":48,"POSITION":47,"TEXCOORD_0":49},"indices":46}]}],"skins":[{"joints":[27,28,29,32,33,34,30,35,5,4,8,9,17,13,14,15,16,25,24,20,21,22,23,12,7,11,19,6],"inverseBindMatrices":50,"skeleton":4}],"animations":[{"name":"CINEMA_4D_Main","channels":[{"sampler":0,"target":{"node":4,"path":"translation"}},{"sampler":1,"target":{"node":4,"path":"rotation"}},{"sampler":2,"target":{"node":5,"path":"rotation"}},{"sampler":3,"target":{"node":6,"path":"rotation"}},{"sampler":4,"target":{"node":7,"path":"rotation"}},{"sampler":5,"target":{"node":8,"path":"rotation"}},{"sampler":6,"target":{"node":9,"path":"rotation"}},{"sampler":7,"target":{"node":11,"path":"rotation"}},{"sampler":8,"target":{"node":12,"path":"rotation"}},{"sampler":9,"target":{"node":13,"path":"rotation"}},{"sampler":10,"target":{"node":14,"path":"rotation"}},{"sampler":11,"target":{"node":15,"path":"rotation"}},{"sampler":12,"target":{"node":16,"path":"rotation"}},{"sampler":13,"target":{"node":17,"path":"rotation"}},{"sampler":14,"target":{"node":19,"path":"rotation"}},{"sampler":15,"target":{"node":20,"path":"rotation"}},{"sampler":16,"target":{"node":21,"path":"rotation"}},{"sampler":17,"target":{"node":22,"path":"rotation"}},{"sampler":18,"target":{"node":23,"path":"rotation"}},{"sampler":19,"target":{"node":24,"path":"rotation"}},{"sampler":20,"target":{"node":25,"path":"rotation"}},{"sampler":21,"target":{"node":27,"path":"rotation"}},{"sampler":22,"target":{"node":28,"path":"rotation"}},{"sampler":23,"target":{"node":29,"path":"rotation"}},{"sampler":24,"target":{"node":30,"path":"rotation"}},{"sampler":25,"target":{"node":32,"path":"rotation"}},{"sampler":26,"target":{"node":33,"path":"rotation"}},{"sampler":27,"target":{"node":34,"path":"rotation"}},{"sampler":28,"target":{"node":35,"path":"rotation"}},{"sampler":29,"target":{"node":39,"path":"scale"}},{"sampler":30,"target":{"node":40,"path":"scale"}}],"samplers":[{"input":0,"interpolation":"LINEAR","output":1},{"input":0,"interpolation":"LINEAR","output":2},{"input":0,"interpolation":"LINEAR","output":3},{"input":0,"interpolation":"LINEAR","output":4},{"input":0,"interpolation":"LINEAR","output":5},{"input":0,"interpolation":"LINEAR","output":6},{"input":0,"interpolation":"LINEAR","output":7},{"input":0,"interpolation":"LINEAR","output":8},{"input":0,"interpolation":"LINEAR","output":9},{"input":0,"interpolation":"LINEAR","output":10},{"input":0,"interpolation":"LINEAR","output":11},{"input":0,"interpolation":"LINEAR","output":12},{"input":0,"interpolation":"LINEAR","output":13},{"input":0,"interpolation":"LINEAR","output":14},{"input":0,"interpolation":"LINEAR","output":15},{"input":0,"interpolation":"LINEAR","output":16},{"input":0,"interpolation":"LINEAR","output":17},{"input":0,"interpolation":"LINEAR","output":18},{"input":0,"interpolation":"LINEAR","output":19},{"input":0,"interpolation":"LINEAR","output":20},{"input":0,"interpolation":"LINEAR","output":21},{"input":0,"interpolation":"LINEAR","output":22},{"input":0,"interpolation":"LINEAR","output":23},{"input":0,"interpolation":"LINEAR","output":24},{"input":0,"interpolation":"LINEAR","output":25},{"input":0,"interpolation":"LINEAR","output":26},{"input":0,"interpolation":"LINEAR","output":27},{"input":0,"interpolation":"LINEAR","output":28},{"input":0,"interpolation":"LINEAR","output":29},{"input":0,"interpolation":"LINEAR","output":30},{"input":0,"interpolation":"LINEAR","output":31}]}],"nodes":[{"name":"RootNode","translation":[0,0,0],"rotation":[0,0,0,1],"scale":[1,1,1],"children":[1,2]},{"name":"Light","translation":[-1.4620509147644,8.51188659667969,-9.30287170410156],"rotation":[0,0,0,1],"scale":[1,1,1],"extensions":{"KHR_lights_punctual":{"light":0}}},{"name":"Null_1","translation":[0,0,0],"rotation":[-0.5,0.5,-0.5,0.5],"scale":[1,1,1],"children":[3,38,39,40]},{"name":"Null","translation":[0,0,0],"rotation":[-6.37080214107357e-17,-0.635214865207672,-5.84230916852405e-17,0.772335469722748],"scale":[1,1,1],"children":[4,37]},{"name":"mixamorig_Hips","translation":[-0.0631232261657715,3.6661913394928,0.0819047540426254],"rotation":[-0.0109402127563953,-0.24781359732151,0.0534514151513577,0.967270195484161],"scale":[1,1,1],"children":[5,27,32]},{"name":"mixamorig_Spine","translation":[-2.1316281596347e-16,0.262584209442139,-0.000918655365239829],"rotation":[0.125120297074318,-0.0409166999161243,0.00790971331298351,0.991265952587128],"scale":[1,1,1],"children":[6]},{"name":"mixamorig_Spine1","translation":[0,0.306349813938141,-5.31652222246493e-11],"rotation":[0.0527191683650017,-0.00635949382558465,0.0261224322021008,0.998247385025024],"scale":[1,1,1],"children":[7]},{"name":"mixamorig_Spine2","translation":[-1.42108543975646e-16,0.350113809108734,2.22996729588865e-12],"rotation":[0.0529495403170586,-0.00585765205323696,0.0257945619523525,0.998246788978577],"scale":[1,1,1],"children":[8,11,19]},{"name":"mixamorig_Neck","translation":[2.84217087951293e-16,0.393878728151321,7.86984131195823e-8],"rotation":[-0.0452324897050858,0.03864910826087,0.0198162291198969,0.998031854629517],"scale":[1,1,1],"children":[9]},{"name":"mixamorig_Head","translation":[-2.84217087951293e-16,0.448010236024857,0.043464582413435],"rotation":[-0.177699267864227,0.222798526287079,-0.141396224498749,0.94804584980011],"scale":[1,1,1],"children":[10]},{"name":"mixamorig_HeadTop_End","translation":[0,2.41190433502197,0.233995586633682],"rotation":[-2.15105711021124e-16,1.95156391047391e-18,3.46944695195361e-18,1],"scale":[1,1,1]},{"name":"mixamorig_LeftShoulder","translation":[0.368905514478683,0.353413313627243,-0.00782068725675344],"rotation":[0.511109292507172,0.485427886247635,-0.431031405925751,0.563328504562378],"scale":[1,1,1],"children":[12]},{"name":"mixamorig_LeftArm","translation":[-8.75856442927869e-10,0.754532933235168,-1.07684061667612e-9],"rotation":[0.668728947639465,0.453600943088531,-0.0123619176447392,0.588977873325348],"scale":[1,1,1],"children":[13]},{"name":"mixamorig_LeftForeArm","translation":[-4.13968442858348e-10,1.01926982402802,-9.85471260150916e-9],"rotation":[0.0111371967941523,-0.000337772507918999,0.48510354757309,0.874385714530945],"scale":[1,1,1],"children":[14]},{"name":"mixamorig_LeftHand","translation":[-2.39066072493799e-10,0.973304331302643,-9.10759290206897e-9],"rotation":[-0.0337674543261528,-0.0868657305836678,-0.0492533594369888,0.99442857503891],"scale":[1,1,1],"children":[15]},{"name":"mixamorig_LeftHandIndex1","translation":[6.88430649292693e-12,0.424407333135605,6.91506762962035e-9],"rotation":[0.0497263073921204,-0.00273086503148079,-0.00736822187900543,0.998731970787048],"scale":[1,1,1],"children":[16]},{"name":"mixamorig_LeftHandIndex2","translation":[4.90405216435619e-11,0.170141696929932,-1.73023692595642e-10],"rotation":[0.00205152318812907,0.00330179068259895,-0.0307826865464449,0.999518513679504],"scale":[1,1,1],"children":[17]},{"name":"mixamorig_LeftHandIndex3","translation":[-0.00621925387531519,0.207867041230202,0.0446984581649303],"rotation":[0.158677160739899,0.0100151496008039,-0.0238286666572094,0.986992120742798],"scale":[1,1,1],"children":[18]},{"name":"mixamorig_LeftHandIndex4","translation":[-0.00285300915129483,0.0821685492992401,0.0160308890044689],"rotation":[-1.66533453693773e-16,-2.77555756156289e-17,1.11022302462516e-16,1],"scale":[1,1,1]},{"name":"mixamorig_RightShoulder","translation":[-0.368905514478683,0.353359550237656,0.00753757124766707],"rotation":[-0.423902153968811,0.565129041671753,-0.540945589542389,-0.456414312124252],"scale":[1,1,1],"children":[20]},{"name":"mixamorig_RightArm","translation":[9.88435999715875e-11,0.754532814025879,-3.1302771485997e-9],"rotation":[0.454385340213776,-0.313334763050079,0.331539869308472,0.765138268470764],"scale":[1,1,1],"children":[21]},{"name":"mixamorig_RightForeArm","translation":[-7.63748175813816e-10,1.02027559280396,-1.68217462181985e-9],"rotation":[-0.0416775122284889,0.000628563051577657,-0.577629864215851,0.815233886241913],"scale":[1,1,1],"children":[22]},{"name":"mixamorig_RightHand","translation":[-1.16225407076342e-9,0.973390698432922,-1.30175514811981e-8],"rotation":[-0.0473578423261642,0.0960039496421814,0.0406743697822094,0.993421375751495],"scale":[1,1,1],"children":[23]},{"name":"mixamorig_RightHandIndex1","translation":[5.38950939432681e-10,0.303476542234421,5.60193225140893e-9],"rotation":[0.00382332201115787,0.0000617992845945992,0.000191399187315255,0.999992668628693],"scale":[1,1,1],"children":[24]},{"name":"mixamorig_RightHandIndex2","translation":[1.58693802543297e-9,0.204000920057297,1.88572713000212e-8],"rotation":[0.0945481285452843,-0.0000164438788488042,0.00489854253828526,0.995508253574371],"scale":[1,1,1],"children":[25]},{"name":"mixamorig_RightHandIndex3","translation":[-0.000263061956502497,0.27040895819664,0.00689405435696244],"rotation":[0.169276535511017,-0.00489457417279482,0.0354092642664909,0.984920144081116],"scale":[1,1,1],"children":[26]},{"name":"mixamorig_RightHandIndex4","translation":[0.00696860952302814,0.125460833311081,-0.00122777698561549],"rotation":[-2.77555756156289e-17,6.24500451351651e-17,-8.32667268468867e-17,1],"scale":[1,1,1]},{"name":"mixamorig_LeftUpLeg","translation":[0.61878365278244,-0.145746156573296,-0.0492324829101563],"rotation":[0.0405494756996632,-0.110296800732613,0.99145370721817,-0.0566562153398991],"scale":[1,1,1],"children":[28]},{"name":"mixamorig_LeftLeg","translation":[7.2808120643586e-10,1.32396376132965,3.2437979385902e-11],"rotation":[-0.367193222045898,0.072596400976181,-0.0557881295681,0.925627648830414],"scale":[1,1,1],"children":[29]},{"name":"mixamorig_LeftFoot","translation":[1.12939879670648e-8,1.66870200634003,1.0939891659234e-8],"rotation":[0.76584392786026,0.0780694633722305,0.0135356765240431,0.638126194477081],"scale":[1,1,1],"children":[30]},{"name":"mixamorig_LeftToeBase","translation":[-3.9505179683097e-10,1.94205105304718,3.04990486199586e-8],"rotation":[0.472714930772781,-0.00403651688247919,0.00834539718925953,0.881166636943817],"scale":[1,1,1],"children":[31]},{"name":"mixamorig_LeftToe_End","translation":[-8.08455472706138e-12,0.734866440296173,-1.42191276114589e-11],"rotation":[-1.2083611888869e-11,-1.38777878078145e-17,4.5102810375397e-17,1],"scale":[1,1,1]},{"name":"mixamorig_RightUpLeg","translation":[-0.61878365278244,-0.145746156573296,-0.0391417667269707],"rotation":[-0.220745250582695,0.556584417819977,0.800927817821503,0.000111760142317507],"scale":[1,1,1],"children":[33]},{"name":"mixamorig_RightLeg","translation":[7.48664330529891e-9,1.32396721839905,2.91242946426351e-10],"rotation":[-0.459641546010971,-0.105432003736496,-0.0328112281858921,0.881213486194611],"scale":[1,1,1],"children":[34]},{"name":"mixamorig_RightFoot","translation":[-8.09801470325056e-9,1.67996835708618,4.02891942030692e-10],"rotation":[0.313391387462616,-0.249544844031334,0.0156366992741823,0.916116118431091],"scale":[1,1,1],"children":[35]},{"name":"mixamorig_RightToeBase","translation":[8.64995353122566e-10,2.00775289535522,3.86105192262676e-8],"rotation":[0.369431585073471,0.00166754715610296,-0.00220164703205228,0.929253816604614],"scale":[1,1,1],"children":[36]},{"name":"mixamorig_RightToe_End","translation":[-2.55258210402065e-11,0.735793590545654,-3.13869451262772e-11],"rotation":[-5.68238685272338e-11,-2.08166817117217e-17,2.51534904016637e-17,1],"scale":[1,1,1]},{"name":"baked","translation":[0.0304243229329586,2.29999995231628,0.366580307483673],"rotation":[-2.88379335889387e-18,0.70710676908493,2.88379335889387e-18,0.70710676908493],"scale":[1,1,1],"mesh":0,"skin":0},{"name":"Extrude","translation":[-4.14296222211267e-17,-0.428800195455551,-1.10539722442627],"rotation":[1.00153526407928e-16,0.70710676908493,-1.00153526407928e-16,0.70710676908493],"scale":[1.15699994564056,1.0074999332428,1.15699994564056],"mesh":1},{"name":"Extrude_1","translation":[4.94733428955078,2.91676473617554,-3.54394149780273],"rotation":[0.148382782936096,0.135701432824135,0.72286456823349,0.661085844039917],"scale":[1,1,1],"mesh":2},{"name":"Extrude_2","translation":[7.70056009292603,5.304123878479,3.3848032951355],"rotation":[-0.0499780066311359,-0.123607084155083,0.753345727920532,0.643967151641846],"scale":[1.40810358524323,1.29545521736145,1.40810358524323],"mesh":3}],"extensions":{"KHR_lights_punctual":{"lights":[{"name":"","color":[1,1,1],"intensity":1,"type":"point"}]}}}
