{
	"asset":{
		"version":"2.0",
		"generator":"Created using the official Cinema 4D glTF Exporter 1.000x284978"
	},
	"materials":[{
		"pbrMetallicRoughness":{
			"baseColorTexture":{
				"index":0
			},
			"baseColorFactor":[0.8,
			0.8,
			0.8,
			1.0],
			"metallicFactor":1.0,
			"roughnessFactor":1.0
		},
		"emissiveFactor":[0.0,
		0.0,
		0.0],
		"alphaMode":"OPAQUE",
		"doubleSided":true,
		"name":"Plane"
	}],
	"accessors":[{
		"bufferView":0,
		"type":"SCALAR",
		"componentType":5123,
		"count":41313,
		"byteOffset":0,
		"min":[0],
		"max":[13941]
	},
	{
		"bufferView":1,
		"type":"VEC3",
		"componentType":5126,
		"count":13942,
		"byteOffset":0,
		"min":[-2.858407735824585,
		-1.2549463510513306,
		-1.3974512815475464],
		"max":[1.124428391456604,
		5.2083587646484379,
		2.581413745880127]
	},
	{
		"bufferView":1,
		"type":"VEC3",
		"componentType":5126,
		"count":13942,
		"byteOffset":12,
		"min":[-0.999902606010437,
		-1.0,
		-0.9997883439064026],
		"max":[0.9999487996101379,
		0.9999966621398926,
		0.9994333982467651]
	},
	{
		"bufferView":1,
		"type":"VEC2",
		"componentType":5126,
		"count":13942,
		"byteOffset":24,
		"min":[0.000339782505761832,
		0.00033411255571991205],
		"max":[0.9990010261535645,
		0.9990010261535645]
	}],
	"scenes":[{
		"nodes":[0]
	}],
	"nodes":[{
		"name":"Plane",
		"translation":[-1.400389552116394,
		2.5898420810699465,
		0.3550894260406494],
		"rotation":[0.0,
		0.0,
		0.0,
		-1.0],
		"scale":[1.0,
		1.0,
		1.0],
		"mesh":0
	}],
	"meshes":[{
		"name":"Plane",
		"primitives":[{
			"attributes":{
				"POSITION":1,
				"NORMAL":2,
				"TEXCOORD_0":3
			},
			"indices":0,
			"material":0
		}]
	}],
	"bufferViews":[{
		"buffer":0,
		"byteOffset":0,
		"byteLength":82626,
		"target":34963
	},
	{
		"buffer":0,
		"byteOffset":82628,
		"byteLength":446144,
		"target":34962,
		"byteStride":32
	}],
	"buffers":[{
		"uri":"data:application/octet-stream;base64,",
		"byteLength":528772
	}],
	"images":[{
		"uri":"data:image/jpeg;base64,"
	}],
	"samplers":[{
		"magFilter":9729,
		"minFilter":9729,
		"wrapS":10497,
		"wrapT":10497
	}],
	"textures":[{
		"sampler":0,
		"source":0
	}]
}